<?xml version="1.0" encoding="UTF-8"?>
<svg version="1.1" viewBox="0 0 1368 1712" width="1368" height="1712" xmlns="http://www.w3.org/2000/svg">
<path transform="translate(0)" d="m0 0h1368v1712h-1368z" fill="#222025"/>
<path transform="translate(713,537)" d="m0 0h26l28 3 20 4 27 8 24 10 26 14 12 8 14 11 11 10 8 7 11 12 15 20 12 19 10 19 8 21 6 20 5 25 2 20v28l-2 21-4 23-7 25-8 20-7 14-12 20-13 17-12 13-16 16-10 8-18 13-15 10-18 10 3 2-1 5-6 12-11 11-10 6-9 3-5 1h-13l-17-5-5-2h-5l-9 10-7 15-5 19-2 17v26l4 12 5 9 5-2 7-3h13l10 5 7 8 1 4 4 2 1 3 4 2 5 3v1l-18 3-11 2h-7l-10-3-6-4-8-8-7-10-6-13-4-16 1 32 3 19 6 18 5 9 4 2-1 4-7 5-10 19-1 5-4-5-8-12-4-7v-2l-7 1-1-5 7-15 3-14 3-26 1-4h-2l-2 6-8 11-8 7-9 4-4 1-17-1-15-3v-2l8-5 9-12 7-6 9-3h10l14 4 7-18 4-18v-20l-3-17-4-14-6-12-6-7-9 1-16 4h-17l-11-3-10-5-10-8-7-8-6-11v-2l7-2-16-8-12-7-15-10-13-11-11-9-9-10-5-4-8-10-12-16-8-13-9-16-8-17-8-24-5-23-2-12-1-11v-37l3-27 5-24 9-25 12-25 12-19 12-16 11-13 21-21 17-13 14-10 21-12 23-10 26-8 24-5z" fill="#BC898A"/>
<path transform="translate(704,560)" d="m0 0h44l23 3 28 7 24 9 22 11 21 14 13 11 10 9 9 9 11 14 7 10 9 15 8 16 8 19 6 21 4 21 2 19v26l-2 22-5 25-6 19-8 19-10 19-14 21-8 10-11 12-9 9-11 9-16 12-20 12-17 10-12 18-17 5-19 7h-3l10-10 13-10 15-10 8-5 3-7-11 2-12 2-12 5-10 6-16 16-10 15-8 14-5 12-3 9h-1l-1-23v-34l3-27 4-19 7-18 7-10 3-5 3-10 6-4 8-4 6-7h8l7 1-4-10-6-8-10-7-9-3-17-2 2-2 10-2h7l12 5 13 8 11 4 5 1h20l17-5 15-8 13-10 5-4 14-16 8-11 10-18 8-7 7-3-11-5-20-6-11-2h-10l-16 4-12 7h-2l-1 4-5 5h-2v2l-5 4-2-1 8-10 9-11 4-5 8-19 6-22 4-24v-33l-1-25-1-6-7 8-14 7-15 4-22 5-13 7-2-1 2 4-1 4 3 9-1 3-6-12-3-3-3-6 1-2 4 3-5-6-8-13-4-3-5 1-8-6-13-13-8-15-1-4v-9h-3l-3 10-6 12-11 12-20 20-8 14-1 3-5 1-16-14-3 1-4 6-22-6-18-6-9-7-3-4-1 2-1 45v26l2 19 4 15 8 16 12 14 6 5-5-14h2l5 10 2-3 3 10 6 12 8 10 12 12 17 12 2 2h-5v2l4 1 2 3-5-2-13-7-13-11-12-12-12-16 1-2 2 1v-2l-6-3-7-6-10-6-12-5-12-2h-14l-15 4-19 9 10 4 7 9 10 18 4 7 10 13 9 9 17 12 14 6 14 4h20l11-3 11-6 6-4 2 1-3 1v2l8-5-2-2 9-2 11 1 2 2-20 5-9 6-6 10-1 9h7l9 3 3 4v2l9 2 8 10 8 14 3 10-1 28v43l1 18v12l-2-4-7-16-10-15-11-13-13-9-12-5-15-2h-5l6 9 8 6 16 10 11 9 10 10-3 1-25-12-15-5-9-14-4-6-22-12-18-12-10-8-14-12-14-14-9-11-8-10-12-18-12-23-8-22-5-23-3-26v-32l3-20 5-23 10-30 12-23 10-16 6-8 7-9 11-12 9-9 8-7 14-11 17-11 12-7 19-8 15-5 25-6z" fill="#222025"/>
<path transform="translate(713,537)" d="m0 0h26l28 3 20 4 27 8 24 10 26 14 12 8 14 11 11 10 8 7 11 12 15 20 12 19 10 19 8 21 6 20 5 25 2 20v28l-2 21-4 23-7 25-8 20-7 14-12 20-13 17-12 13-16 16-10 8-18 13-15 10-18 10 3 2-1 5-6 12-11 11-10 6-9 3-5 1h-13l-17-5-5-2h-5l-9 10-7 15-5 19-2 17v26l4 12 5 9 5-2 7-3h13l10 5 7 8 1 4 4 2 1 3 4 2 5 3v1l-18 3-11 2h-7l-10-3-6-4-8-8-7-10-6-13-4-16 1 32 3 19 6 18 5 9 4 2-1 4-7 5-10 19-1 5-4-5-8-12-4-7v-2l-7 1-1-5 7-15 3-14 3-26 1-4h-2l-2 6-8 11-8 7-9 4-4 1-17-1-15-3v-2l8-5 9-12 7-6 9-3h10l14 4 7-18 4-18v-20l-3-17-4-14-6-12-6-7-9 1-16 4h-17l-11-3-10-5-10-8-7-8-6-11v-2l7-2-16-8-12-7-15-10-13-11-11-9-9-10-5-4-8-10-12-16-8-13-9-16-8-17-8-24-5-23-2-12-1-11v-37l3-27 5-24 9-25 12-25 12-19 12-16 11-13 21-21 17-13 14-10 21-12 23-10 26-8 24-5zm-9 23-22 3-29 7-21 8-16 8-19 12-16 12-7 7-8 7-11 11-10 13-8 11-13 22-8 17-9 27-6 28-2 15v32l3 26 5 23 9 24 12 23 14 20 11 13 11 12 10 10 11 9 13 10 21 13 15 8 5 8 8 12 17 6 23 11 3-1-13-13-14-10-16-10-6-7-2-4 15 1 13 4 12 7 8 7 11 14 9 15 5 12 2 4v-12l-1-18v-43l1-28-4-12-7-12-8-10-9-2-2-4-3-3-10-2h-4l1-9 6-10 9-6 8-1v1l19 4 13 5 10-1 8-3 9 1 5 3v-8l1-2-3-1 9 1 10 5 8 7 7 14v1l-7-1h-8l-7 8-12 6-3 6-3 9-6 8-5 10-5 14-4 23-2 20v34l1 23 2-3 6-16 7-13 10-15 9-10 10-10 15-8 10-3 16-2 3-1-4 8-12 7-15 11-11 9-7 7h3l21-8 15-4 12-18 19-11 21-13 14-11 14-12 13-13 11-14 12-18 8-14 9-19 6-17 5-19 3-16 2-22v-26l-3-26-6-26-7-19-10-22-13-21-9-12-11-13-12-12-11-9-12-9-18-11-25-12-21-7-24-6-23-3z" fill="#E4AFB1"/>
<path transform="translate(858,659)" d="m0 0h1l1 8 1 25v33l-4 24-6 22-8 19-11 13-5 6-7 6-2-1 2-9 8-31 1-19-2-15-3-11-4-7-2 1-5-14 5 39v21l-4 26-6 18-7 13-8 11-11 10-9 6-3-1 3-3v-4l-4 2h-3l-4-1v-5l-4 2-7 8-5 5-9 7h-2l-2 5-2-1-11 4-6 1-2-2 2-1-12-8v-2h-2v-2h-2l-7-11-4-10v-17l4-11 7-13 13-17 16-16 16-12 14-9 8-4 19-8 12-7 8-6 3-5 1-8-7 7-5 4-4-2-1-8-3-9-4-2v-3l3 1 16-8 28-6 13-5 9-6 4-5z" fill="#E7B2B4"/>
<path transform="translate(749,873)" d="m0 0h9l10 4 9 6 6 7 5 11-1 2-15-2-2 4-5 5-12 6-4 12-7 10-5 10-5 14-4 23-2 20v34l1 20 6-16 7-13 10-15 9-10 11-11 15-8 10-3 19-2-3 9-5 2-15 10-13 10-10 9v1l2 1-1 1h6l3 2-1 4-4 4 3 3 1 5 8 2 12 1v1h-13l-17-5-5-2h-5l-9 10-7 15-5 19-2 17v26l4 12 5 9 5-2 7-3h13l10 5 7 8 1 4 4 2 1 3 4 2 5 3v1l-18 3-11 2h-7l-10-3-6-4-8-8-7-10-6-13-4-16 1 32 3 19 6 18 5 9 4 2-1 4-7 5-10 19-1 5-4-5-8-12-4-7v-2l-7 1-1-5 7-15 3-14 3-26 1-4h-2l-2 6-8 11-8 7-9 4-4 1-17-1-15-3v-2l8-5 9-12 7-6 9-3h10l14 4 7-18 4-18v-20l-3-17-3-11v-7l-3-9-4-1-1-9-2-6-2-5 3-1 1 5 3 1 1 2 3 1 4 10-1-26v-43l1-28-4-12-7-12-7-9-7-2-5-5v-2l-12-2-5-1 1-9 6-10 8-6 5-2h7l3 2 14 3 13 5 10-1 8-3 9 1 4 3v-7l1-1-6-2z" fill="#E5B0B2"/>
<path transform="translate(567,790)" d="m0 0h14l12 2 12 5 10 6 3 3 3 2 3 1 4 4v2l-2 1 10 13 9 10 8 8 14 10 11 6v2l5 1 4 3-3 2-5 5-4 1v-2l-14 8-8 3-5 1h-20l-17-5-14-7-16-12-10-10-11-15-7-14-9-14-9-4-4-2 21-10z" fill="#E5B0B2"/>
<path transform="translate(866,790)" d="m0 0h10l19 4 17 6 8 4-12 6-6 7-10 18-11 14-13 13-9 8-15 9-12 5-11 3h-20l-12-3-11-6-6-4-1-3 5 1 13 8 11 3h7l-7-2-4-1v-2l-4-1 1-5 2-3h2l2-8-2-2 3-4h2v-2l5-4 7-8 8-9 1-3h2v-6l7-10 7-6 11-7-4-1-5 2v-2l12-6z" fill="#E6B1B3"/>
<path transform="translate(630,717)" d="m0 0 5 2 10 7 23 10 13 7 9 7 16 16-1 6-10 12-7 10-2 5-2-1-5 13-2 13v9l3 12 7 11h-3l-3-4-3 1v2l-5-1-14-10-15-15-8-12-5-12-3-16-2-18v-21z" fill="#E7B2B4"/>
<path transform="translate(726,623)" d="m0 0h3l2 13 8 15 15 15 6 3 4-1 1 2h-2l6 8v3h2v3h2v3h-2l-1 10-6 13h-2l-5-12-3-5 1 5 3 11v16l-3 7-6 5-5 2-4-1-7-6-5-4-7-1-9 4-8 4-9-24-7-8-8-7-2-3 1-6 7-11 27-27 6-9z" fill="#E7B2B4"/>
<path transform="translate(596,664)" d="m0 0 5 5 10 7 16 5 22 6 5-7 3 1 4 7 5 4-1 4h-2l-1 4-7 12-3 8-6-2-1-3v-7l1-5-2-6-3 3-6 12-6-1-1 7h-5l1 7-3 5-2-1-2 10v34l4 18 4 8 2 8-4-2-7-7-8-10-8-16-4-15-2-19v-26l1-45z" fill="#E5B1B3"/>
<path transform="translate(807,1011)" d="m0 0h18l5 1-1 4 5-3-1 7h-2v3h-2l-1 4-3 5-8 7-11 5-4 1h-17l-11-3 1-6-6-2 4-2 4-3v-3l-4-1h-5l2-4 19-7 8-2z" fill="#E6B1B3"/>
<path transform="translate(712,1141)" d="m0 0 1 4h-2l-2 6-8 11-8 7-9 4-4 1-17-1-15-3v-2l8-5 9-12 7-6 9-3h10l14 4 3-3z" fill="#E3AEB0"/>
<path transform="translate(674,695)" d="m0 0 5 5 1 3 5 5 8 12 4 12v5l-3 2v-2l-3-1-1-3-4 1 1 4-4-1-19-9-6-4v-6l6-11 7-9z" fill="#E8B3B5"/>
<path transform="translate(773,1024)" d="m0 0 5 2-1 4-4 4 3 3 1 5 8 2 12 1v1h-13l-17-5-5-2h-5l-9 10-7 15-5 19-2 17v26l4 12 3 6-2 4 3 7h-2l-6-11-2-7 2-3-3-11v-51l1-2 3 1v2l4-12h-2l1-6 8-17 2-1-1 4 2-2 4-2 7-1-1-3 3-2v-3l5-1 1-2z" fill="#BD8A8B"/>
<path transform="translate(765,897)" d="m0 0 4 2 1 5-5 6-12 6-4 12-7 10-5 10-4 11-1-4 4-15 7-14 1-4h-2l2-9 1-3h2l1-3 7-5 4-4z" fill="#BC898A"/>
<path transform="translate(779,697)" d="m0 0 4 2 6 12v6h-2v2l-20 9-3 1 1-5 9-19z" fill="#E6B1B3"/>
<path transform="translate(848,997)" d="m0 0 2 1-14 8 3 2-1 5-6 12-5 4 2-6h2l1-5 1-4h-2l-1 3-2-1 2-4h-29l4-4 5-8 3 3v2h18z" fill="#BC898A"/>
<path transform="translate(722,1128)" d="m0 0h1l1 25 3 19 6 18 5 9 4 2-1 4-7 5-10 19-1 5-4-5-6-9 1-2 5 5 1 3 2 1 2-4 5-11 7-8-1-7-4 2-1-7-3-3-2-13-3-21z" fill="#BC898A"/>
<path transform="translate(730,963)" d="m0 0 1 4-4 27-1 11v34l1 29 1 17-1 14h-1l-2-54h-1v-42l6-37z" fill="#BC898A"/>
<path transform="translate(723,738)" d="m0 0 4 4-1 5-7 8-4-5-1-4 5-6z" fill="#E8B3B5"/>
<path transform="translate(732,1114)" d="m0 0h1l2 16 5 12 1 4-2 2 3 7h-2l-6-11-2-7 2-3-3-11v-8z" fill="#BC898A"/>
<path transform="translate(748,1145)" d="m0 0 6 2-1 6-2 5h-4l-2-4-3-1-1-7 4 1z" fill="#BD8A8B"/>
<path transform="translate(712,1141)" d="m0 0 1 4h-2l-2 6-8 11-5 5-2-1 2-3 1-3h4l1-5 3-6 2-3-1-2z" fill="#C18D8E"/>
<path transform="translate(689,868)" d="m0 0 12 1 2 2-24 6 4-5-2-2z" fill="#302A2E"/>
<path transform="translate(692,1030)" d="m0 0 2 1v6l5 2-1 2-1-1-9 1-7 1 2-2 3-1-7-1 3-2 6-2-2-3 6 1z" fill="#BD8A8B"/>
<path transform="translate(763,670)" d="m0 0 5 1 12 18 2 4-8-6-1-3h-2v-3h-2l-4-7z" fill="#8C686A"/>
<path transform="translate(771,871)" d="m0 0 5 1 13 8 3 2v2l-5-1-12-7-4-4z" fill="#D9A5A7"/>
<path transform="translate(701,1034)" d="m0 0 2 2 1 9 3 1 4 9-2 4-6-12-4-6h3l-2-6z" fill="#CA9798"/>
<path transform="translate(675,1029)" d="m0 0h7l3 2h-2v4l-9-1-1-4z" fill="#BC898A"/>
<path transform="translate(901,797)" d="m0 0 9 2 10 5-12 6-4 3 2-4 5-4h2l-4-4-8-3z" fill="#BC898A"/>
<path transform="translate(764,855)" d="m0 0v3l-11 6-5-1 4-6h2v2z" fill="#E6B1B3"/>
<path transform="translate(771,863)" d="m0 0 3 1-3 6-3-2v2l-8-1v-2z" fill="#E2ADAF"/>
<path transform="translate(764,907)" d="m0 0h2l-1 3-17 8 1-3 5-5 9-2z" fill="#DBA6A8"/>
<path transform="translate(768,1014)" d="m0 0 2 1-3 4-1 6-4 2h-3l-1-3h3l1-3 2-1 3-5z" fill="#BF8C8D"/>
<path transform="translate(721,1102)" d="m0 0h1l2 13v6h-1l-1 5h-1z" fill="#BC898A"/>
<path transform="translate(811,981)" d="m0 0h3l-3 9-2-2 2-3-7-1h-9v-1z" fill="#BC898A"/>
<path transform="translate(701,1021)" d="m0 0 4 5 3 5v2l-3-1v-2l-4-1-1-7z" fill="#BD8A8B"/>
<path transform="translate(735,1135)" d="m0 0 3 3 3 6-2 4-1-4h-2l-2-5z" fill="#C69394"/>
<path transform="translate(886,838)" d="m0 0 2 2-8 10-4 3 2-5z" fill="#BC898A"/>
<path transform="translate(638,982)" d="m0 0 16 1v1h-9v2h-3v-2l-3 1z" fill="#BD8A8B"/>
<path transform="translate(652,687)" d="m0 0 6 4 5 5-4-1-5-2z" fill="#BC898A"/>
<path transform="translate(763,670)" d="m0 0 5 1 3 5h-3l-5-4z" fill="#846366"/>
<path transform="translate(701,1034)" d="m0 0 2 2 1 9-1 2-4-6h3l-2-6z" fill="#BC898A"/>
</svg>
